<mxfile host="Electron" modified="2024-06-08T15:42:30.138Z" agent="Mozilla/5.0 (Windows NT 10.0; Win64; x64) AppleWebKit/537.36 (KHTML, like Gecko) draw.io/22.1.2 Chrome/114.0.5735.289 Electron/25.9.4 Safari/537.36" etag="BW5F3cRovw3s-Ht-DTFj" version="22.1.2" type="device">
  <diagram name="Pagina-1" id="vwTHgUvf60XEX9A7mk6P">
    <mxGraphModel dx="1018" dy="759" grid="1" gridSize="10" guides="1" tooltips="1" connect="1" arrows="1" fold="1" page="1" pageScale="1" pageWidth="1169" pageHeight="1654" math="0" shadow="0">
      <root>
        <mxCell id="0" />
        <mxCell id="1" parent="0" />
        <mxCell id="iJCufx0ePuxkXxOEdomS-24" value="user" style="shape=umlLifeline;perimeter=lifelinePerimeter;whiteSpace=wrap;html=1;container=1;dropTarget=0;collapsible=0;recursiveResize=0;outlineConnect=0;portConstraint=eastwest;newEdgeStyle={&quot;curved&quot;:0,&quot;rounded&quot;:0};participant=umlActor;size=80;" vertex="1" parent="1">
          <mxGeometry x="220" y="30" width="40" height="720" as="geometry" />
        </mxCell>
        <mxCell id="iJCufx0ePuxkXxOEdomS-30" value="Shop" style="shape=umlLifeline;perimeter=lifelinePerimeter;whiteSpace=wrap;html=1;container=1;dropTarget=0;collapsible=0;recursiveResize=0;outlineConnect=0;portConstraint=eastwest;newEdgeStyle={&quot;curved&quot;:0,&quot;rounded&quot;:0};size=60;" vertex="1" parent="1">
          <mxGeometry x="320" y="30" width="120" height="710" as="geometry" />
        </mxCell>
        <mxCell id="iJCufx0ePuxkXxOEdomS-40" value="" style="html=1;points=[[0,0,0,0,5],[0,1,0,0,-5],[1,0,0,0,5],[1,1,0,0,-5]];perimeter=orthogonalPerimeter;outlineConnect=0;targetShapes=umlLifeline;portConstraint=eastwest;newEdgeStyle={&quot;curved&quot;:0,&quot;rounded&quot;:0};" vertex="1" parent="iJCufx0ePuxkXxOEdomS-30">
          <mxGeometry x="50" y="80" width="20" height="540" as="geometry" />
        </mxCell>
        <mxCell id="iJCufx0ePuxkXxOEdomS-34" value="&lt;span style=&quot;font-size: 16px;&quot;&gt;Add Item to Kart&lt;br&gt;&lt;/span&gt;" style="html=1;verticalAlign=bottom;endArrow=block;curved=0;rounded=0;" edge="1" parent="1" target="iJCufx0ePuxkXxOEdomS-40">
          <mxGeometry width="80" relative="1" as="geometry">
            <mxPoint x="240" y="140" as="sourcePoint" />
            <mxPoint x="379.5" y="140" as="targetPoint" />
          </mxGeometry>
        </mxCell>
        <mxCell id="iJCufx0ePuxkXxOEdomS-43" value="&lt;span style=&quot;font-size: 16px;&quot;&gt;remove from kart&lt;/span&gt;" style="html=1;verticalAlign=bottom;endArrow=block;curved=0;rounded=0;" edge="1" parent="1">
          <mxGeometry width="80" relative="1" as="geometry">
            <mxPoint x="240" y="280.42" as="sourcePoint" />
            <mxPoint x="370" y="280" as="targetPoint" />
          </mxGeometry>
        </mxCell>
        <mxCell id="iJCufx0ePuxkXxOEdomS-46" value="InventoryManager" style="shape=umlLifeline;perimeter=lifelinePerimeter;whiteSpace=wrap;html=1;container=1;dropTarget=0;collapsible=0;recursiveResize=0;outlineConnect=0;portConstraint=eastwest;newEdgeStyle={&quot;curved&quot;:0,&quot;rounded&quot;:0};size=60;" vertex="1" parent="1">
          <mxGeometry x="525" y="30" width="120" height="520" as="geometry" />
        </mxCell>
        <mxCell id="iJCufx0ePuxkXxOEdomS-47" value="" style="html=1;points=[[0,0,0,0,5],[0,1,0,0,-5],[1,0,0,0,5],[1,1,0,0,-5]];perimeter=orthogonalPerimeter;outlineConnect=0;targetShapes=umlLifeline;portConstraint=eastwest;newEdgeStyle={&quot;curved&quot;:0,&quot;rounded&quot;:0};" vertex="1" parent="iJCufx0ePuxkXxOEdomS-46">
          <mxGeometry x="50" y="110" width="20" height="210" as="geometry" />
        </mxCell>
        <mxCell id="iJCufx0ePuxkXxOEdomS-48" value="&lt;font style=&quot;font-size: 16px;&quot;&gt;Select By SKU&lt;/font&gt;" style="html=1;verticalAlign=bottom;endArrow=block;curved=0;rounded=0;" edge="1" parent="1" target="iJCufx0ePuxkXxOEdomS-47">
          <mxGeometry width="80" relative="1" as="geometry">
            <mxPoint x="390" y="160" as="sourcePoint" />
            <mxPoint x="470" y="160" as="targetPoint" />
          </mxGeometry>
        </mxCell>
        <mxCell id="iJCufx0ePuxkXxOEdomS-51" value="&lt;font style=&quot;font-size: 16px;&quot;&gt;Item of SKU&lt;/font&gt;" style="html=1;verticalAlign=bottom;endArrow=open;dashed=1;endSize=8;curved=0;rounded=0;" edge="1" parent="1">
          <mxGeometry relative="1" as="geometry">
            <mxPoint x="575" y="200" as="sourcePoint" />
            <mxPoint x="390" y="200" as="targetPoint" />
          </mxGeometry>
        </mxCell>
        <mxCell id="iJCufx0ePuxkXxOEdomS-52" value="Kart" style="shape=umlLifeline;perimeter=lifelinePerimeter;whiteSpace=wrap;html=1;container=1;dropTarget=0;collapsible=0;recursiveResize=0;outlineConnect=0;portConstraint=eastwest;newEdgeStyle={&quot;curved&quot;:0,&quot;rounded&quot;:0};size=60;" vertex="1" parent="1">
          <mxGeometry x="740" y="30" width="120" height="520" as="geometry" />
        </mxCell>
        <mxCell id="iJCufx0ePuxkXxOEdomS-53" value="" style="html=1;points=[[0,0,0,0,5],[0,1,0,0,-5],[1,0,0,0,5],[1,1,0,0,-5]];perimeter=orthogonalPerimeter;outlineConnect=0;targetShapes=umlLifeline;portConstraint=eastwest;newEdgeStyle={&quot;curved&quot;:0,&quot;rounded&quot;:0};" vertex="1" parent="iJCufx0ePuxkXxOEdomS-52">
          <mxGeometry x="50" y="80" width="20" height="420" as="geometry" />
        </mxCell>
        <mxCell id="iJCufx0ePuxkXxOEdomS-54" value="&lt;font style=&quot;font-size: 16px;&quot;&gt;Add item of SKU&lt;/font&gt;" style="html=1;verticalAlign=bottom;endArrow=block;curved=0;rounded=0;" edge="1" parent="1" source="iJCufx0ePuxkXxOEdomS-40">
          <mxGeometry width="80" relative="1" as="geometry">
            <mxPoint x="595" y="240" as="sourcePoint" />
            <mxPoint x="790" y="240" as="targetPoint" />
          </mxGeometry>
        </mxCell>
        <mxCell id="iJCufx0ePuxkXxOEdomS-56" value="&lt;font style=&quot;font-size: 16px;&quot;&gt;Select By SKU&lt;/font&gt;" style="html=1;verticalAlign=bottom;endArrow=block;curved=0;rounded=0;" edge="1" parent="1">
          <mxGeometry width="80" relative="1" as="geometry">
            <mxPoint x="390" y="300" as="sourcePoint" />
            <mxPoint x="575" y="300" as="targetPoint" />
          </mxGeometry>
        </mxCell>
        <mxCell id="iJCufx0ePuxkXxOEdomS-58" value="&lt;font style=&quot;font-size: 16px;&quot;&gt;Item of SKU&lt;/font&gt;" style="html=1;verticalAlign=bottom;endArrow=open;dashed=1;endSize=8;curved=0;rounded=0;" edge="1" parent="1">
          <mxGeometry x="0.027" y="10" relative="1" as="geometry">
            <mxPoint x="575" y="340" as="sourcePoint" />
            <mxPoint x="390" y="340" as="targetPoint" />
            <mxPoint as="offset" />
          </mxGeometry>
        </mxCell>
        <mxCell id="iJCufx0ePuxkXxOEdomS-59" value="&lt;font style=&quot;font-size: 16px;&quot;&gt;Remove item of SKU&lt;/font&gt;" style="html=1;verticalAlign=bottom;endArrow=block;curved=0;rounded=0;" edge="1" parent="1">
          <mxGeometry width="80" relative="1" as="geometry">
            <mxPoint x="390" y="380" as="sourcePoint" />
            <mxPoint x="790" y="380" as="targetPoint" />
          </mxGeometry>
        </mxCell>
        <mxCell id="iJCufx0ePuxkXxOEdomS-60" value="&lt;span style=&quot;font-size: 16px;&quot;&gt;Make Order&lt;/span&gt;" style="html=1;verticalAlign=bottom;endArrow=block;curved=0;rounded=0;" edge="1" parent="1">
          <mxGeometry width="80" relative="1" as="geometry">
            <mxPoint x="240" y="420.42" as="sourcePoint" />
            <mxPoint x="370" y="420" as="targetPoint" />
          </mxGeometry>
        </mxCell>
        <mxCell id="iJCufx0ePuxkXxOEdomS-61" value="&lt;font style=&quot;font-size: 16px;&quot;&gt;Build Order&lt;/font&gt;" style="html=1;verticalAlign=bottom;endArrow=block;curved=0;rounded=0;" edge="1" parent="1">
          <mxGeometry width="80" relative="1" as="geometry">
            <mxPoint x="390" y="430" as="sourcePoint" />
            <mxPoint x="790" y="430" as="targetPoint" />
          </mxGeometry>
        </mxCell>
        <mxCell id="iJCufx0ePuxkXxOEdomS-62" value="RegisterFacade" style="shape=umlLifeline;perimeter=lifelinePerimeter;whiteSpace=wrap;html=1;container=1;dropTarget=0;collapsible=0;recursiveResize=0;outlineConnect=0;portConstraint=eastwest;newEdgeStyle={&quot;curved&quot;:0,&quot;rounded&quot;:0};size=60;" vertex="1" parent="1">
          <mxGeometry x="940" y="30" width="120" height="530" as="geometry" />
        </mxCell>
        <mxCell id="iJCufx0ePuxkXxOEdomS-63" value="" style="html=1;points=[[0,0,0,0,5],[0,1,0,0,-5],[1,0,0,0,5],[1,1,0,0,-5]];perimeter=orthogonalPerimeter;outlineConnect=0;targetShapes=umlLifeline;portConstraint=eastwest;newEdgeStyle={&quot;curved&quot;:0,&quot;rounded&quot;:0};" vertex="1" parent="iJCufx0ePuxkXxOEdomS-62">
          <mxGeometry x="50" y="370" width="20" height="90" as="geometry" />
        </mxCell>
        <mxCell id="iJCufx0ePuxkXxOEdomS-64" value="&lt;font style=&quot;font-size: 16px;&quot;&gt;Create&lt;/font&gt;" style="html=1;verticalAlign=bottom;endArrow=block;curved=0;rounded=0;" edge="1" parent="1">
          <mxGeometry width="80" relative="1" as="geometry">
            <mxPoint x="390" y="130" as="sourcePoint" />
            <mxPoint x="790" y="130" as="targetPoint" />
          </mxGeometry>
        </mxCell>
        <mxCell id="iJCufx0ePuxkXxOEdomS-65" value="&lt;font style=&quot;font-size: 16px;&quot;&gt;Add Order&lt;/font&gt;" style="html=1;verticalAlign=bottom;endArrow=block;curved=0;rounded=0;" edge="1" parent="1" target="iJCufx0ePuxkXxOEdomS-63">
          <mxGeometry width="80" relative="1" as="geometry">
            <mxPoint x="810" y="460" as="sourcePoint" />
            <mxPoint x="995" y="460" as="targetPoint" />
          </mxGeometry>
        </mxCell>
        <mxCell id="iJCufx0ePuxkXxOEdomS-67" value="&lt;font style=&quot;font-size: 16px;&quot;&gt;Start Payment Process&lt;/font&gt;" style="html=1;verticalAlign=bottom;endArrow=block;curved=0;rounded=0;" edge="1" parent="1">
          <mxGeometry width="80" relative="1" as="geometry">
            <mxPoint x="390" y="590" as="sourcePoint" />
            <mxPoint x="1130" y="590" as="targetPoint" />
          </mxGeometry>
        </mxCell>
        <mxCell id="iJCufx0ePuxkXxOEdomS-68" value="&lt;font style=&quot;font-size: 16px;&quot;&gt;Total to Pay&lt;/font&gt;" style="html=1;verticalAlign=bottom;endArrow=open;dashed=1;endSize=8;curved=0;rounded=0;" edge="1" parent="1">
          <mxGeometry relative="1" as="geometry">
            <mxPoint x="790" y="500" as="sourcePoint" />
            <mxPoint x="390" y="500" as="targetPoint" />
          </mxGeometry>
        </mxCell>
        <mxCell id="iJCufx0ePuxkXxOEdomS-71" value="&lt;span style=&quot;font-size: 16px;&quot;&gt;Process Info&lt;/span&gt;" style="html=1;verticalAlign=bottom;endArrow=open;dashed=1;endSize=8;curved=0;rounded=0;" edge="1" parent="1" source="iJCufx0ePuxkXxOEdomS-40">
          <mxGeometry relative="1" as="geometry">
            <mxPoint x="320" y="620" as="sourcePoint" />
            <mxPoint x="240" y="620" as="targetPoint" />
          </mxGeometry>
        </mxCell>
      </root>
    </mxGraphModel>
  </diagram>
</mxfile>
